<?xml version="1.0" encoding="UTF-8"?>
<svg xmlns="http://www.w3.org/2000/svg" viewBox="0 0 1000 1000">
  <defs>
    <style>
      .cls-1 {
        fill: #fff;
        stroke: #fff;
        stroke-linejoin: round;
        stroke-width: 10px;
      }

      .cls-2 {
        fill: #4ab688;
        stroke-width: 0px;
      }
    </style>
  </defs>
  <g id="Background">
    <rect class="cls-2" width="1000" height="1000"/>
  </g>
  <g id="Qawyrsyn">
    <path class="cls-1" d="M590.22,426.13c10.9,15.67,29.04,25.92,49.58,25.92,15.79,0,30.15-6.07,40.91-15.99-6.62,29.62-33.05,51.77-64.66,51.77-4.13,0-8.93-.38-12.85-1.1-5.88,45.66-44.9,80.95-92.16,80.95-16.63,0-32.25-4.37-45.75-12.03-2.85-1.62-5.61-3.38-8.26-5.28h0c-22.85-15.64-30.98-58.54-6.6-82.15,22.6-21.88,54.31-10.92,56.57,13.01.05.8.07,1.61.05,2.43-.37,12.81-10.69,23.4-23.48,24.09-3.88.21-7.58-.47-10.91-1.86-6.35,14.19,12.77,25.85,27.33,27.61,2.15.24,4.86.26,7.07.26,31.73,0,56.97-23.07,56.97-54.8s-24.08-52.69-57.07-60.3c-32.84-7.57-61.1-10.77-108.37,33.73s-78.85,116.53-87.74,150.58c8.22-27.38,33.62-47.34,63.68-47.34,27.01,0,50.24,16.12,60.65,39.26-6.37-2.35-13.25-3.64-20.44-3.64-9.67,0-18.8,2.33-26.85,6.45-23.17,11.01-38.42,53.26-50.08,75.67-10.23,19.66-45.89,22.44-45.89,22.44l-11.27,33.43,9.86,15.36-35.4,61.67s6.64-124.82,19.94-184.93h0c24.82-176.52,165.74-314.97,343.14-337.03,10.06-1.12,21.2-2.22,30.99-2.63,51.49-2.15,94.4-31.85,113.13-76.58,14.5,15.05,23.44,35.51,23.44,58.06,0,46.23-36.81,86.18-83.02,87.5-37.76,1.08-66.73-19.27-89.68-19.74-25.35-.52-60.11,14.49-60.11,14.49-34.58,13.05-60.2,27.96-89.69,49.25,13.81-8.56,29.7-12.85,47.84-12.85,31.98,0,60.18,16.15,76.9,40.74.73,1.22,1.5,2.4,2.3,3.56"/>
  </g>
</svg>