<?xml version="1.0" encoding="UTF-8"?>
<svg id="Qawyrsyn" xmlns="http://www.w3.org/2000/svg" viewBox="0 0 1000 1000">
  <defs>
    <style>
      .cls-1 {
        fill: #fff;
        stroke: #fff;
        stroke-linejoin: round;
        stroke-width: 10px;
      }
    </style>
  </defs>
  <path class="cls-1" d="M498.89,444.3c7.63,10.97,20.33,18.14,34.7,18.14,11.05,0,21.11-4.25,28.63-11.19-4.63,20.73-23.13,36.24-45.26,36.24-2.89,0-6.25-.26-8.99-.77-4.11,31.96-31.43,56.66-64.51,56.66-11.64,0-22.57-3.06-32.03-8.42-2-1.13-3.93-2.36-5.78-3.69h0c-16-10.95-21.69-40.97-4.62-57.5,15.82-15.31,38.02-7.64,39.6,9.11.04.56.05,1.13.03,1.7-.26,8.96-7.48,16.38-16.44,16.86-2.71.15-5.3-.33-7.64-1.3-4.45,9.94,8.94,18.1,19.13,19.33,1.51.17,3.4.18,4.95.18,22.21,0,39.88-16.15,39.88-38.36s-16.86-36.89-39.95-42.21-42.77-7.54-75.86,23.61c-32.96,31.02-55.19,81.57-61.42,105.41,5.75-19.17,23.53-33.14,44.58-33.14,18.91,0,35.17,11.28,42.45,27.48-4.46-1.65-9.28-2.55-14.31-2.55-6.77,0-13.16,1.63-18.8,4.52-16.22,7.71-26.89,37.28-35.06,52.97-7.16,13.76-32.12,15.71-32.12,15.71l-7.89,23.4,6.9,10.75-24.78,43.17s4.65-87.37,13.96-129.45h0c17.37-123.56,116.02-220.48,240.2-235.92,7.04-.78,14.84-1.55,21.69-1.84,36.04-1.51,66.08-22.29,79.19-53.61,10.15,10.54,16.41,24.85,16.41,40.64,0,32.36-25.77,60.33-58.12,61.25-26.43.75-46.71-13.49-62.77-13.82-17.75-.36-42.08,10.14-42.08,10.14-24.2,9.14-42.14,19.57-62.78,34.47,9.67-5.99,20.79-8.99,33.48-8.99,22.38,0,42.12,11.31,53.83,28.52.51.85,1.05,1.68,1.61,2.5"/>
</svg>